<?xml version='1.0' encoding='UTF-8'?>
<svg version="1.1" viewBox="0 0 39 39" xmlns="http://www.w3.org/2000/svg"><rect fill="white" x="0" y="0" width="100%" height="100%" /><path d="M3,3H4V4H3zM4,3H5V4H4zM5,3H6V4H5zM6,3H7V4H6zM7,3H8V4H7zM8,3H9V4H8zM9,3H10V4H9zM11,3H12V4H11zM12,3H13V4H12zM14,3H15V4H14zM15,3H16V4H15zM19,3H20V4H19zM21,3H22V4H21zM22,3H23V4H22zM23,3H24V4H23zM26,3H27V4H26zM29,3H30V4H29zM30,3H31V4H30zM31,3H32V4H31zM32,3H33V4H32zM33,3H34V4H33zM34,3H35V4H34zM35,3H36V4H35zM3,4H4V5H3zM9,4H10V5H9zM11,4H12V5H11zM12,4H13V5H12zM13,4H14V5H13zM14,4H15V5H14zM15,4H16V5H15zM17,4H18V5H17zM20,4H21V5H20zM21,4H22V5H21zM25,4H26V5H25zM26,4H27V5H26zM27,4H28V5H27zM29,4H30V5H29zM35,4H36V5H35zM3,5H4V6H3zM5,5H6V6H5zM6,5H7V6H6zM7,5H8V6H7zM9,5H10V6H9zM13,5H14V6H13zM14,5H15V6H14zM16,5H17V6H16zM17,5H18V6H17zM22,5H23V6H22zM25,5H26V6H25zM26,5H27V6H26zM29,5H30V6H29zM31,5H32V6H31zM32,5H33V6H32zM33,5H34V6H33zM35,5H36V6H35zM3,6H4V7H3zM5,6H6V7H5zM6,6H7V7H6zM7,6H8V7H7zM9,6H10V7H9zM11,6H12V7H11zM13,6H14V7H13zM18,6H19V7H18zM20,6H21V7H20zM22,6H23V7H22zM23,6H24V7H23zM25,6H26V7H25zM27,6H28V7H27zM29,6H30V7H29zM31,6H32V7H31zM32,6H33V7H32zM33,6H34V7H33zM35,6H36V7H35zM3,7H4V8H3zM5,7H6V8H5zM6,7H7V8H6zM7,7H8V8H7zM9,7H10V8H9zM12,7H13V8H12zM14,7H15V8H14zM15,7H16V8H15zM16,7H17V8H16zM19,7H20V8H19zM22,7H23V8H22zM27,7H28V8H27zM29,7H30V8H29zM31,7H32V8H31zM32,7H33V8H32zM33,7H34V8H33zM35,7H36V8H35zM3,8H4V9H3zM9,8H10V9H9zM12,8H13V9H12zM13,8H14V9H13zM14,8H15V9H14zM17,8H18V9H17zM18,8H19V9H18zM19,8H20V9H19zM20,8H21V9H20zM21,8H22V9H21zM22,8H23V9H22zM25,8H26V9H25zM27,8H28V9H27zM29,8H30V9H29zM35,8H36V9H35zM3,9H4V10H3zM4,9H5V10H4zM5,9H6V10H5zM6,9H7V10H6zM7,9H8V10H7zM8,9H9V10H8zM9,9H10V10H9zM11,9H12V10H11zM13,9H14V10H13zM15,9H16V10H15zM17,9H18V10H17zM19,9H20V10H19zM21,9H22V10H21zM23,9H24V10H23zM25,9H26V10H25zM27,9H28V10H27zM29,9H30V10H29zM30,9H31V10H30zM31,9H32V10H31zM32,9H33V10H32zM33,9H34V10H33zM34,9H35V10H34zM35,9H36V10H35zM11,10H12V11H11zM12,10H13V11H12zM14,10H15V11H14zM15,10H16V11H15zM18,10H19V11H18zM19,10H20V11H19zM20,10H21V11H20zM22,10H23V11H22zM25,10H26V11H25zM3,11H4V12H3zM5,11H6V12H5zM6,11H7V12H6zM8,11H9V12H8zM9,11H10V12H9zM10,11H11V12H10zM12,11H13V12H12zM14,11H15V12H14zM15,11H16V12H15zM17,11H18V12H17zM18,11H19V12H18zM20,11H21V12H20zM21,11H22V12H21zM24,11H25V12H24zM27,11H28V12H27zM29,11H30V12H29zM32,11H33V12H32zM34,11H35V12H34zM35,11H36V12H35zM4,12H5V13H4zM6,12H7V13H6zM7,12H8V13H7zM10,12H11V13H10zM12,12H13V13H12zM13,12H14V13H13zM15,12H16V13H15zM16,12H17V13H16zM17,12H18V13H17zM19,12H20V13H19zM20,12H21V13H20zM21,12H22V13H21zM22,12H23V13H22zM23,12H24V13H23zM24,12H25V13H24zM26,12H27V13H26zM29,12H30V13H29zM30,12H31V13H30zM32,12H33V13H32zM33,12H34V13H33zM35,12H36V13H35zM4,13H5V14H4zM5,13H6V14H5zM7,13H8V14H7zM9,13H10V14H9zM11,13H12V14H11zM14,13H15V14H14zM16,13H17V14H16zM19,13H20V14H19zM20,13H21V14H20zM23,13H24V14H23zM26,13H27V14H26zM27,13H28V14H27zM28,13H29V14H28zM30,13H31V14H30zM31,13H32V14H31zM32,13H33V14H32zM34,13H35V14H34zM35,13H36V14H35zM10,14H11V15H10zM11,14H12V15H11zM13,14H14V15H13zM14,14H15V15H14zM19,14H20V15H19zM21,14H22V15H21zM26,14H27V15H26zM28,14H29V15H28zM29,14H30V15H29zM30,14H31V15H30zM32,14H33V15H32zM35,14H36V15H35zM3,15H4V16H3zM4,15H5V16H4zM5,15H6V16H5zM6,15H7V16H6zM7,15H8V16H7zM9,15H10V16H9zM10,15H11V16H10zM13,15H14V16H13zM14,15H15V16H14zM15,15H16V16H15zM17,15H18V16H17zM18,15H19V16H18zM20,15H21V16H20zM21,15H22V16H21zM25,15H26V16H25zM27,15H28V16H27zM28,15H29V16H28zM30,15H31V16H30zM31,15H32V16H31zM32,15H33V16H32zM34,15H35V16H34zM3,16H4V17H3zM5,16H6V17H5zM6,16H7V17H6zM11,16H12V17H11zM17,16H18V17H17zM22,16H23V17H22zM24,16H25V17H24zM25,16H26V17H25zM27,16H28V17H27zM32,16H33V17H32zM33,16H34V17H33zM34,16H35V17H34zM5,17H6V18H5zM9,17H10V18H9zM10,17H11V18H10zM11,17H12V18H11zM14,17H15V18H14zM15,17H16V18H15zM16,17H17V18H16zM20,17H21V18H20zM21,17H22V18H21zM22,17H23V18H22zM23,17H24V18H23zM24,17H25V18H24zM27,17H28V18H27zM29,17H30V18H29zM32,17H33V18H32zM3,18H4V19H3zM6,18H7V19H6zM10,18H11V19H10zM12,18H13V19H12zM13,18H14V19H13zM16,18H17V19H16zM17,18H18V19H17zM19,18H20V19H19zM24,18H25V19H24zM27,18H28V19H27zM28,18H29V19H28zM29,18H30V19H29zM30,18H31V19H30zM32,18H33V19H32zM33,18H34V19H33zM3,19H4V20H3zM5,19H6V20H5zM6,19H7V20H6zM7,19H8V20H7zM8,19H9V20H8zM9,19H10V20H9zM13,19H14V20H13zM14,19H15V20H14zM15,19H16V20H15zM16,19H17V20H16zM18,19H19V20H18zM24,19H25V20H24zM25,19H26V20H25zM27,19H28V20H27zM28,19H29V20H28zM29,19H30V20H29zM31,19H32V20H31zM33,19H34V20H33zM5,20H6V21H5zM8,20H9V21H8zM10,20H11V21H10zM13,20H14V21H13zM14,20H15V21H14zM16,20H17V21H16zM18,20H19V21H18zM20,20H21V21H20zM23,20H24V21H23zM25,20H26V21H25zM26,20H27V21H26zM27,20H28V21H27zM28,20H29V21H28zM29,20H30V21H29zM31,20H32V21H31zM32,20H33V21H32zM34,20H35V21H34zM35,20H36V21H35zM5,21H6V22H5zM9,21H10V22H9zM10,21H11V22H10zM11,21H12V22H11zM16,21H17V22H16zM17,21H18V22H17zM18,21H19V22H18zM19,21H20V22H19zM20,21H21V22H20zM24,21H25V22H24zM25,21H26V22H25zM29,21H30V22H29zM30,21H31V22H30zM31,21H32V22H31zM33,21H34V22H33zM34,21H35V22H34zM5,22H6V23H5zM6,22H7V23H6zM10,22H11V23H10zM11,22H12V23H11zM15,22H16V23H15zM16,22H17V23H16zM19,22H20V23H19zM20,22H21V23H20zM21,22H22V23H21zM25,22H26V23H25zM26,22H27V23H26zM27,22H28V23H27zM28,22H29V23H28zM29,22H30V23H29zM31,22H32V23H31zM3,23H4V24H3zM6,23H7V24H6zM9,23H10V24H9zM11,23H12V24H11zM12,23H13V24H12zM14,23H15V24H14zM17,23H18V24H17zM19,23H20V24H19zM20,23H21V24H20zM21,23H22V24H21zM22,23H23V24H22zM24,23H25V24H24zM32,23H33V24H32zM33,23H34V24H33zM35,23H36V24H35zM3,24H4V25H3zM4,24H5V25H4zM5,24H6V25H5zM6,24H7V25H6zM7,24H8V25H7zM8,24H9V25H8zM12,24H13V25H12zM13,24H14V25H13zM14,24H15V25H14zM15,24H16V25H15zM20,24H21V25H20zM21,24H22V25H21zM22,24H23V25H22zM23,24H24V25H23zM24,24H25V25H24zM26,24H27V25H26zM29,24H30V25H29zM32,24H33V25H32zM33,24H34V25H33zM35,24H36V25H35zM7,25H8V26H7zM8,25H9V26H8zM9,25H10V26H9zM10,25H11V26H10zM11,25H12V26H11zM13,25H14V26H13zM14,25H15V26H14zM17,25H18V26H17zM20,25H21V26H20zM21,25H22V26H21zM25,25H26V26H25zM26,25H27V26H26zM27,25H28V26H27zM29,25H30V26H29zM30,25H31V26H30zM32,25H33V26H32zM34,25H35V26H34zM35,25H36V26H35zM4,26H5V27H4zM5,26H6V27H5zM7,26H8V27H7zM8,26H9V27H8zM11,26H12V27H11zM13,26H14V27H13zM19,26H20V27H19zM21,26H22V27H21zM25,26H26V27H25zM26,26H27V27H26zM27,26H28V27H27zM30,26H31V27H30zM31,26H32V27H31zM32,26H33V27H32zM35,26H36V27H35zM3,27H4V28H3zM6,27H7V28H6zM8,27H9V28H8zM9,27H10V28H9zM11,27H12V28H11zM12,27H13V28H12zM13,27H14V28H13zM14,27H15V28H14zM15,27H16V28H15zM16,27H17V28H16zM18,27H19V28H18zM20,27H21V28H20zM23,27H24V28H23zM25,27H26V28H25zM26,27H27V28H26zM27,27H28V28H27zM28,27H29V28H28zM29,27H30V28H29zM30,27H31V28H30zM31,27H32V28H31zM35,27H36V28H35zM11,28H12V29H11zM12,28H13V29H12zM14,28H15V29H14zM17,28H18V29H17zM18,28H19V29H18zM19,28H20V29H19zM20,28H21V29H20zM22,28H23V29H22zM25,28H26V29H25zM26,28H27V29H26zM27,28H28V29H27zM31,28H32V29H31zM32,28H33V29H32zM3,29H4V30H3zM4,29H5V30H4zM5,29H6V30H5zM6,29H7V30H6zM7,29H8V30H7zM8,29H9V30H8zM9,29H10V30H9zM11,29H12V30H11zM12,29H13V30H12zM13,29H14V30H13zM14,29H15V30H14zM19,29H20V30H19zM22,29H23V30H22zM23,29H24V30H23zM26,29H27V30H26zM27,29H28V30H27zM29,29H30V30H29zM31,29H32V30H31zM34,29H35V30H34zM3,30H4V31H3zM9,30H10V31H9zM11,30H12V31H11zM14,30H15V31H14zM16,30H17V31H16zM17,30H18V31H17zM22,30H23V31H22zM23,30H24V31H23zM24,30H25V31H24zM26,30H27V31H26zM27,30H28V31H27zM31,30H32V31H31zM32,30H33V31H32zM33,30H34V31H33zM35,30H36V31H35zM3,31H4V32H3zM5,31H6V32H5zM6,31H7V32H6zM7,31H8V32H7zM9,31H10V32H9zM13,31H14V32H13zM14,31H15V32H14zM16,31H17V32H16zM17,31H18V32H17zM19,31H20V32H19zM21,31H22V32H21zM22,31H23V32H22zM23,31H24V32H23zM24,31H25V32H24zM25,31H26V32H25zM26,31H27V32H26zM27,31H28V32H27zM28,31H29V32H28zM29,31H30V32H29zM30,31H31V32H30zM31,31H32V32H31zM33,31H34V32H33zM35,31H36V32H35zM3,32H4V33H3zM5,32H6V33H5zM6,32H7V33H6zM7,32H8V33H7zM9,32H10V33H9zM11,32H12V33H11zM12,32H13V33H12zM14,32H15V33H14zM16,32H17V33H16zM17,32H18V33H17zM18,32H19V33H18zM21,32H22V33H21zM23,32H24V33H23zM25,32H26V33H25zM30,32H31V33H30zM33,32H34V33H33zM35,32H36V33H35zM3,33H4V34H3zM5,33H6V34H5zM6,33H7V34H6zM7,33H8V34H7zM9,33H10V34H9zM11,33H12V34H11zM12,33H13V34H12zM13,33H14V34H13zM14,33H15V34H14zM15,33H16V34H15zM17,33H18V34H17zM18,33H19V34H18zM20,33H21V34H20zM21,33H22V34H21zM23,33H24V34H23zM26,33H27V34H26zM29,33H30V34H29zM30,33H31V34H30zM33,33H34V34H33zM3,34H4V35H3zM9,34H10V35H9zM13,34H14V35H13zM14,34H15V35H14zM20,34H21V35H20zM21,34H22V35H21zM26,34H27V35H26zM27,34H28V35H27zM28,34H29V35H28zM30,34H31V35H30zM31,34H32V35H31zM35,34H36V35H35zM3,35H4V36H3zM4,35H5V36H4zM5,35H6V36H5zM6,35H7V36H6zM7,35H8V36H7zM8,35H9V36H8zM9,35H10V36H9zM11,35H12V36H11zM12,35H13V36H12zM14,35H15V36H14zM15,35H16V36H15zM16,35H17V36H16zM17,35H18V36H17zM20,35H21V36H20zM21,35H22V36H21zM22,35H23V36H22zM24,35H25V36H24zM29,35H30V36H29zM31,35H32V36H31zM32,35H33V36H32zM33,35H34V36H33z" id="qr-path" fill="#000000" fill-opacity="1" fill-rule="nonzero" stroke="none" /></svg>